<svg xmlns="http://www.w3.org/2000/svg" viewBox="0 0 213.1 133.38"><defs><style>.cls-1{fill:#2678ff;}</style></defs><g id="图层_2" data-name="图层 2"><g id="图层_1-2" data-name="图层 1"><path class="cls-1" d="M117.5,10.1C102.76.16,86,0,81.86,0,41.22-.28.09,38.05,0,76.68c0,4.8.57,25.12,15.75,40.49,14.11,14.28,32.21,15.59,38.31,16,14.7,1.06,30.49-2.8,44.47-10.47ZM61.87,100.65c-3.12-.22-12.36-.89-19.57-8.19-7.75-7.84-8-18.22-8-20.67.05-19.73,21.05-39.3,41.8-39.15,2.65,0,15.22.1,23.42,9.83,8.62,10.24,6.2,23.77,5.13,28.1C99.93,89.55,79.37,101.92,61.87,100.65Z"/><path class="cls-1" d="M186.26,64c4-.45,19.93-3.9,24.58-29.83,5.32-29.69-26.58-29-26.58-29H128.88L106.72,129.05l57.82-.05s37.22,2.88,46.9-33C220.2,63.51,191.74,63.7,186.26,64Zm-5.88,27.17c-.77,12.24-14.95,12.68-14.95,12.68H143.94l4.32-25.36H170S181.16,79,180.38,91.19Zm0-49.86C179.61,53.57,165.43,54,165.43,54H151.69L156,28.65h14S181.16,29.09,180.38,41.33Z"/></g></g></svg>